<svg width="89" height="68" viewBox="0 0 89 68" fill="none" xmlns="http://www.w3.org/2000/svg">
<path d="M53.5833 8.45245C53.5833 7.32753 53.1048 6.24869 52.2531 5.45325C51.4014 4.65781 50.2462 4.21094 49.0417 4.21094H39.9583C38.7538 4.21094 37.5986 4.65781 36.7469 5.45325C35.8952 6.24869 35.4167 7.32753 35.4167 8.45245V33.9016C35.4167 35.0265 35.8952 36.1053 36.7469 36.9008C37.5986 37.6962 38.7538 38.1431 39.9583 38.1431H49.0417C50.2462 38.1431 51.4014 37.6962 52.2531 36.9008C53.1048 36.1053 53.5833 35.0265 53.5833 33.9016V25.4185C53.5833 24.2936 53.1048 23.2148 52.2531 22.4193C51.4014 21.6239 50.2462 21.177 49.0417 21.177H35.4167M3.625 4.21094H14.9792C16.786 4.21094 18.5187 4.88125 19.7963 6.0744C21.0739 7.26756 21.7917 8.88583 21.7917 10.5732V14.8147C21.7917 16.5021 21.0739 18.1204 19.7963 19.3135C18.5187 20.5067 16.786 21.177 14.9792 21.177H8.16667H14.9792C16.786 21.177 18.5187 21.8473 19.7963 23.0405C21.0739 24.2336 21.7917 25.8519 21.7917 27.5393V31.7808C21.7917 33.4682 21.0739 35.0864 19.7963 36.2796C18.5187 37.4728 16.786 38.1431 14.9792 38.1431H3.625M3.625 50.8676C3.625 57.8958 21.9279 63.5922 44.5 63.5922C67.0721 63.5922 85.375 57.8958 85.375 50.8676M67.2083 12.694V29.66C67.2083 31.9099 68.1653 34.0676 69.8688 35.6584C71.5722 37.2493 73.8826 38.1431 76.2917 38.1431C78.7007 38.1431 81.0111 37.2493 82.7145 35.6584C84.418 34.0676 85.375 31.9099 85.375 29.66V12.694C85.375 10.4441 84.418 8.28644 82.7145 6.69556C81.0111 5.10468 78.7007 4.21094 76.2917 4.21094C73.8826 4.21094 71.5722 5.10468 69.8688 6.69556C68.1653 8.28644 67.2083 10.4441 67.2083 12.694V12.694Z" stroke="white" stroke-width="7" stroke-linecap="round" stroke-linejoin="round"/>
</svg>
